<?xml version="1.0" encoding="UTF-8" standalone="no"?>
<!-- Generator: Adobe Illustrator 19.0.0, SVG Export Plug-In . SVG Version: 6.00 Build 0)  -->

<svg
   version="1.1"
   id="Layer_1"
   x="0px"
   y="0px"
   viewBox="0 0 504 504"
   style="enable-background:new 0 0 504 504;"
   xml:space="preserve"
   sodipodi:docname="museum-icon.svg"
   inkscape:export-filename="museum-icon.png"
   inkscape:export-xdpi="12.190476"
   inkscape:export-ydpi="12.190476"
   inkscape:version="1.2 (dc2aedaf03, 2022-05-15)"
   xmlns:inkscape="http://www.inkscape.org/namespaces/inkscape"
   xmlns:sodipodi="http://sodipodi.sourceforge.net/DTD/sodipodi-0.dtd"
   xmlns="http://www.w3.org/2000/svg"
   xmlns:svg="http://www.w3.org/2000/svg"><defs
   id="defs200"><linearGradient
     id="linearGradient4870"
     inkscape:swatch="solid"><stop
       style="stop-color:#000000;stop-opacity:1;"
       offset="0"
       id="stop4868" /></linearGradient></defs><sodipodi:namedview
   id="namedview198"
   pagecolor="#ffffff"
   bordercolor="#000000"
   borderopacity="0.25"
   inkscape:showpageshadow="2"
   inkscape:pageopacity="0.0"
   inkscape:pagecheckerboard="0"
   inkscape:deskcolor="#d1d1d1"
   showgrid="false"
   inkscape:zoom="1.109127"
   inkscape:cx="220.44365"
   inkscape:cy="264.62254"
   inkscape:window-width="1366"
   inkscape:window-height="750"
   inkscape:window-x="0"
   inkscape:window-y="18"
   inkscape:window-maximized="1"
   inkscape:current-layer="Layer_1" />
<circle
   style="fill:#dedede;fill-opacity:1;opacity:0.9;stroke:#fd0034;stroke-opacity:0.91727066;stroke-width:25;stroke-dasharray:none"
   cx="252"
   cy="252"
   r="252"
   id="circle135" />
<g
   id="g143"
   style="fill:#24242e;fill-opacity:1">
	<rect
   x="143.8"
   y="179.8"
   style="fill:#24242e;fill-opacity:1"
   width="39.8"
   height="146.8"
   id="rect137" />
	<rect
   x="232.1"
   y="179.8"
   style="fill:#24242e;fill-opacity:1"
   width="39.8"
   height="146.8"
   id="rect139" />
	<rect
   x="320.4"
   y="179.8"
   style="fill:#24242e;fill-opacity:1"
   width="39.8"
   height="146.8"
   id="rect141" />
</g>
<polygon
   style="fill:#24242e;fill-opacity:1"
   points="389.7,180.6 114.3,180.6 114.3,148.9 252,97.6 389.7,148.9 "
   id="polygon145" />
<polygon
   style="fill:#21a25b;fill-opacity:1"
   points="129,166 129,159.1 252,113.3 375,159.1 375,166 "
   id="polygon147" />
<rect
   x="119.1"
   y="326.6"
   style="fill:#21a25b;fill-opacity:1"
   width="265.8"
   height="20.2"
   id="rect149" />
<rect
   x="105.4"
   y="346.8"
   style="fill:#24b968;fill-opacity:1"
   width="293.2"
   height="20.2"
   id="rect151" />
<g
   id="g165"
   style="fill:#f6a9a9;fill-opacity:1">
	<path
   style="fill:#f6a9a9;fill-opacity:1"
   d="M313.8,180.6v10.6c0,3.2,2.6,5.9,5.9,5.9h41.2c3.2,0,5.9-2.6,5.9-5.9v-10.6H313.8z"
   id="path153" />
	<path
   style="fill:#f6a9a9;fill-opacity:1"
   d="M225.5,180.6v10.6c0,3.2,2.6,5.9,5.9,5.9h41.2c3.2,0,5.9-2.6,5.9-5.9v-10.6H225.5z"
   id="path155" />
	<path
   style="fill:#f6a9a9;fill-opacity:1"
   d="M137.2,180.6v10.6c0,3.2,2.6,5.9,5.9,5.9h41.2c3.2,0,5.9-2.6,5.9-5.9v-10.6H137.2z"
   id="path157" />
	<path
   style="fill:#f6a9a9;fill-opacity:1"
   d="M313.8,326.6V316c0-3.2,2.6-5.9,5.9-5.9h41.2c3.2,0,5.9,2.6,5.9,5.9v10.6H313.8z"
   id="path159" />
	<path
   style="fill:#f6a9a9;fill-opacity:1"
   d="M225.5,326.6V316c0-3.2,2.6-5.9,5.9-5.9h41.2c3.2,0,5.9,2.6,5.9,5.9v10.6H225.5z"
   id="path161" />
	<path
   style="fill:#f6a9a9;fill-opacity:1"
   d="M137.2,326.6V316c0-3.2,2.6-5.9,5.9-5.9h41.2c3.2,0,5.9,2.6,5.9,5.9v10.6H137.2z"
   id="path163" />
</g>
<g
   id="g167">
</g>
<g
   id="g169">
</g>
<g
   id="g171">
</g>
<g
   id="g173">
</g>
<g
   id="g175">
</g>
<g
   id="g177">
</g>
<g
   id="g179">
</g>
<g
   id="g181">
</g>
<g
   id="g183">
</g>
<g
   id="g185">
</g>
<g
   id="g187">
</g>
<g
   id="g189">
</g>
<g
   id="g191">
</g>
<g
   id="g193">
</g>
<g
   id="g195"
   inkscape:export-filename="museum-icon.png"
   inkscape:export-xdpi="12.190476"
   inkscape:export-ydpi="12.190476">
</g>
</svg>
